<?xml version="1.0" encoding="UTF-8"?>
<svg xmlns="http://www.w3.org/2000/svg" width="1500" height="990" viewBox="0 0 1500 990" xmlns="http://www.w3.org/2000/svg"><rect x="0" y="0" width="1500" height="990" fill="#0d131c"/><text x="760" y="28" fill="#f5c518" font-size="20" text-anchor="middle" font-weight="bold" font-family="sans-serif">装甲板受击检测节点原理图</text><text x="760" y="48" fill="#9fb3c8" font-size="12" text-anchor="middle" font-family="sans-serif">4× 薄膜压敏 + 4× HX711 + STM32F103C8T6 (I2C2 从机 / ID 焊盘设定)</text><rect x="60" y="100" width="170" height="770" rx="8" fill="none" stroke="#ff5d7a" stroke-width="1.6" stroke-dasharray="7 5"></rect><text x="145" y="120" fill="#ff5d7a" font-size="13" text-anchor="middle" font-family="sans-serif">装甲板（受击面）</text><rect x="100" y="155" width="90" height="50" rx="3" fill="#131a24" stroke="#ff5d7a" stroke-width="2"></rect><line x1="108" y1="198" x2="182" y2="162" stroke="#ff5d7a" stroke-width="1.3"></line><polygon points="182,162 174,164 178,170" fill="#ff5d7a"></polygon><text x="145" y="178" fill="#e8f0f8" font-size="13" text-anchor="middle" font-weight="bold" font-family="Consolas,monospace">S1</text><text x="145" y="194" fill="#9fb3c8" font-size="10" text-anchor="middle" font-family="sans-serif">压敏</text><polyline points="190,165 380,165" fill="none" stroke="#b8cfe8" stroke-width="1.6"></polyline><circle cx="190" cy="165" r="2.4" fill="#b8cfe8"></circle><polyline points="190,195 380,195" fill="none" stroke="#b8cfe8" stroke-width="1.6"></polyline><circle cx="190" cy="195" r="2.4" fill="#b8cfe8"></circle><rect x="100" y="365" width="90" height="50" rx="3" fill="#131a24" stroke="#ff5d7a" stroke-width="2"></rect><line x1="108" y1="408" x2="182" y2="372" stroke="#ff5d7a" stroke-width="1.3"></line><polygon points="182,372 174,374 178,380" fill="#ff5d7a"></polygon><text x="145" y="388" fill="#e8f0f8" font-size="13" text-anchor="middle" font-weight="bold" font-family="Consolas,monospace">S2</text><text x="145" y="404" fill="#9fb3c8" font-size="10" text-anchor="middle" font-family="sans-serif">压敏</text><polyline points="190,375 380,375" fill="none" stroke="#b8cfe8" stroke-width="1.6"></polyline><circle cx="190" cy="375" r="2.4" fill="#b8cfe8"></circle><polyline points="190,405 380,405" fill="none" stroke="#b8cfe8" stroke-width="1.6"></polyline><circle cx="190" cy="405" r="2.4" fill="#b8cfe8"></circle><rect x="100" y="575" width="90" height="50" rx="3" fill="#131a24" stroke="#ff5d7a" stroke-width="2"></rect><line x1="108" y1="618" x2="182" y2="582" stroke="#ff5d7a" stroke-width="1.3"></line><polygon points="182,582 174,584 178,590" fill="#ff5d7a"></polygon><text x="145" y="598" fill="#e8f0f8" font-size="13" text-anchor="middle" font-weight="bold" font-family="Consolas,monospace">S3</text><text x="145" y="614" fill="#9fb3c8" font-size="10" text-anchor="middle" font-family="sans-serif">压敏</text><polyline points="190,585 380,585" fill="none" stroke="#b8cfe8" stroke-width="1.6"></polyline><circle cx="190" cy="585" r="2.4" fill="#b8cfe8"></circle><polyline points="190,615 380,615" fill="none" stroke="#b8cfe8" stroke-width="1.6"></polyline><circle cx="190" cy="615" r="2.4" fill="#b8cfe8"></circle><rect x="100" y="785" width="90" height="50" rx="3" fill="#131a24" stroke="#ff5d7a" stroke-width="2"></rect><line x1="108" y1="828" x2="182" y2="792" stroke="#ff5d7a" stroke-width="1.3"></line><polygon points="182,792 174,794 178,800" fill="#ff5d7a"></polygon><text x="145" y="808" fill="#e8f0f8" font-size="13" text-anchor="middle" font-weight="bold" font-family="Consolas,monospace">S4</text><text x="145" y="824" fill="#9fb3c8" font-size="10" text-anchor="middle" font-family="sans-serif">压敏</text><polyline points="190,795 380,795" fill="none" stroke="#b8cfe8" stroke-width="1.6"></polyline><circle cx="190" cy="795" r="2.4" fill="#b8cfe8"></circle><polyline points="190,825 380,825" fill="none" stroke="#b8cfe8" stroke-width="1.6"></polyline><circle cx="190" cy="825" r="2.4" fill="#b8cfe8"></circle><rect x="380" y="120" width="190" height="120" rx="4" fill="#10161f" stroke="#f5c518" stroke-width="2"></rect><text x="475" y="140" fill="#e8f0f8" font-size="15" text-anchor="middle" font-family="Consolas,monospace">HX711 #1</text><circle cx="380" cy="165" r="2.4" fill="#b8cfe8"></circle><text x="388" y="169" fill="#e8f0f8" font-size="11" text-anchor="start" font-family="Consolas,monospace">E+</text><circle cx="380" cy="195" r="2.4" fill="#b8cfe8"></circle><text x="388" y="199" fill="#e8f0f8" font-size="11" text-anchor="start" font-family="Consolas,monospace">A+</text><circle cx="380" cy="225" r="2.4" fill="#b8cfe8"></circle><text x="388" y="229" fill="#e8f0f8" font-size="11" text-anchor="start" font-family="Consolas,monospace">A-</text><circle cx="570" cy="164" r="2.4" fill="#b8cfe8"></circle><text x="562" y="168" fill="#e8f0f8" font-size="11" text-anchor="end" font-family="Consolas,monospace">DT</text><circle cx="570" cy="196" r="2.4" fill="#b8cfe8"></circle><text x="562" y="200" fill="#e8f0f8" font-size="11" text-anchor="end" font-family="Consolas,monospace">SCK</text><polyline points="430,120 430,104" fill="none" stroke="#b8cfe8" stroke-width="1.6"></polyline><text x="430" y="96" fill="#35e0ff" font-size="11" text-anchor="middle" font-family="Consolas,monospace">+3.3V</text><polyline points="525,240 525,256" fill="none" stroke="#b8cfe8" stroke-width="1.6"></polyline><g stroke="#b8cfe8" stroke-width="1.6"><line x1="525" y1="256" x2="525" y2="263"></line><line x1="517" y1="263" x2="533" y2="263"></line><line x1="520" y1="267" x2="530" y2="267"></line><line x1="523" y1="271" x2="527" y2="271"></line></g><polyline points="380,225 350,225" fill="none" stroke="#b8cfe8" stroke-width="1.6"></polyline><rect x="310" y="218" width="40" height="14" rx="2" fill="#10161f" stroke="#b8cfe8" stroke-width="1.6"></rect><text x="330" y="246" fill="#9fb3c8" font-size="10" text-anchor="middle" font-family="Consolas,monospace">R1 10k</text><polyline points="310,225 300,225" fill="none" stroke="#b8cfe8" stroke-width="1.6"></polyline><polyline points="300,225 300,940" fill="none" stroke="#b8cfe8" stroke-width="1.6"></polyline><circle cx="300" cy="225" r="3" fill="#b8cfe8"></circle><rect x="380" y="330" width="190" height="120" rx="4" fill="#10161f" stroke="#f5c518" stroke-width="2"></rect><text x="475" y="350" fill="#e8f0f8" font-size="15" text-anchor="middle" font-family="Consolas,monospace">HX711 #2</text><circle cx="380" cy="375" r="2.4" fill="#b8cfe8"></circle><text x="388" y="379" fill="#e8f0f8" font-size="11" text-anchor="start" font-family="Consolas,monospace">E+</text><circle cx="380" cy="405" r="2.4" fill="#b8cfe8"></circle><text x="388" y="409" fill="#e8f0f8" font-size="11" text-anchor="start" font-family="Consolas,monospace">A+</text><circle cx="380" cy="435" r="2.4" fill="#b8cfe8"></circle><text x="388" y="439" fill="#e8f0f8" font-size="11" text-anchor="start" font-family="Consolas,monospace">A-</text><circle cx="570" cy="374" r="2.4" fill="#b8cfe8"></circle><text x="562" y="378" fill="#e8f0f8" font-size="11" text-anchor="end" font-family="Consolas,monospace">DT</text><circle cx="570" cy="406" r="2.4" fill="#b8cfe8"></circle><text x="562" y="410" fill="#e8f0f8" font-size="11" text-anchor="end" font-family="Consolas,monospace">SCK</text><polyline points="430,330 430,314" fill="none" stroke="#b8cfe8" stroke-width="1.6"></polyline><text x="430" y="306" fill="#35e0ff" font-size="11" text-anchor="middle" font-family="Consolas,monospace">+3.3V</text><polyline points="525,450 525,466" fill="none" stroke="#b8cfe8" stroke-width="1.6"></polyline><g stroke="#b8cfe8" stroke-width="1.6"><line x1="525" y1="466" x2="525" y2="473"></line><line x1="517" y1="473" x2="533" y2="473"></line><line x1="520" y1="477" x2="530" y2="477"></line><line x1="523" y1="481" x2="527" y2="481"></line></g><polyline points="380,435 350,435" fill="none" stroke="#b8cfe8" stroke-width="1.6"></polyline><rect x="310" y="428" width="40" height="14" rx="2" fill="#10161f" stroke="#b8cfe8" stroke-width="1.6"></rect><text x="330" y="456" fill="#9fb3c8" font-size="10" text-anchor="middle" font-family="Consolas,monospace">R2 10k</text><polyline points="310,435 300,435" fill="none" stroke="#b8cfe8" stroke-width="1.6"></polyline><polyline points="300,435 300,940" fill="none" stroke="#b8cfe8" stroke-width="1.6"></polyline><circle cx="300" cy="435" r="3" fill="#b8cfe8"></circle><rect x="380" y="540" width="190" height="120" rx="4" fill="#10161f" stroke="#f5c518" stroke-width="2"></rect><text x="475" y="560" fill="#e8f0f8" font-size="15" text-anchor="middle" font-family="Consolas,monospace">HX711 #3</text><circle cx="380" cy="585" r="2.4" fill="#b8cfe8"></circle><text x="388" y="589" fill="#e8f0f8" font-size="11" text-anchor="start" font-family="Consolas,monospace">E+</text><circle cx="380" cy="615" r="2.4" fill="#b8cfe8"></circle><text x="388" y="619" fill="#e8f0f8" font-size="11" text-anchor="start" font-family="Consolas,monospace">A+</text><circle cx="380" cy="645" r="2.4" fill="#b8cfe8"></circle><text x="388" y="649" fill="#e8f0f8" font-size="11" text-anchor="start" font-family="Consolas,monospace">A-</text><circle cx="570" cy="584" r="2.4" fill="#b8cfe8"></circle><text x="562" y="588" fill="#e8f0f8" font-size="11" text-anchor="end" font-family="Consolas,monospace">DT</text><circle cx="570" cy="616" r="2.4" fill="#b8cfe8"></circle><text x="562" y="620" fill="#e8f0f8" font-size="11" text-anchor="end" font-family="Consolas,monospace">SCK</text><polyline points="430,540 430,524" fill="none" stroke="#b8cfe8" stroke-width="1.6"></polyline><text x="430" y="516" fill="#35e0ff" font-size="11" text-anchor="middle" font-family="Consolas,monospace">+3.3V</text><polyline points="525,660 525,676" fill="none" stroke="#b8cfe8" stroke-width="1.6"></polyline><g stroke="#b8cfe8" stroke-width="1.6"><line x1="525" y1="676" x2="525" y2="683"></line><line x1="517" y1="683" x2="533" y2="683"></line><line x1="520" y1="687" x2="530" y2="687"></line><line x1="523" y1="691" x2="527" y2="691"></line></g><polyline points="380,645 350,645" fill="none" stroke="#b8cfe8" stroke-width="1.6"></polyline><rect x="310" y="638" width="40" height="14" rx="2" fill="#10161f" stroke="#b8cfe8" stroke-width="1.6"></rect><text x="330" y="666" fill="#9fb3c8" font-size="10" text-anchor="middle" font-family="Consolas,monospace">R3 10k</text><polyline points="310,645 300,645" fill="none" stroke="#b8cfe8" stroke-width="1.6"></polyline><polyline points="300,645 300,940" fill="none" stroke="#b8cfe8" stroke-width="1.6"></polyline><circle cx="300" cy="645" r="3" fill="#b8cfe8"></circle><rect x="380" y="750" width="190" height="120" rx="4" fill="#10161f" stroke="#f5c518" stroke-width="2"></rect><text x="475" y="770" fill="#e8f0f8" font-size="15" text-anchor="middle" font-family="Consolas,monospace">HX711 #4</text><circle cx="380" cy="795" r="2.4" fill="#b8cfe8"></circle><text x="388" y="799" fill="#e8f0f8" font-size="11" text-anchor="start" font-family="Consolas,monospace">E+</text><circle cx="380" cy="825" r="2.4" fill="#b8cfe8"></circle><text x="388" y="829" fill="#e8f0f8" font-size="11" text-anchor="start" font-family="Consolas,monospace">A+</text><circle cx="380" cy="855" r="2.4" fill="#b8cfe8"></circle><text x="388" y="859" fill="#e8f0f8" font-size="11" text-anchor="start" font-family="Consolas,monospace">A-</text><circle cx="570" cy="794" r="2.4" fill="#b8cfe8"></circle><text x="562" y="798" fill="#e8f0f8" font-size="11" text-anchor="end" font-family="Consolas,monospace">DT</text><circle cx="570" cy="826" r="2.4" fill="#b8cfe8"></circle><text x="562" y="830" fill="#e8f0f8" font-size="11" text-anchor="end" font-family="Consolas,monospace">SCK</text><polyline points="430,750 430,734" fill="none" stroke="#b8cfe8" stroke-width="1.6"></polyline><text x="430" y="726" fill="#35e0ff" font-size="11" text-anchor="middle" font-family="Consolas,monospace">+3.3V</text><polyline points="525,870 525,886" fill="none" stroke="#b8cfe8" stroke-width="1.6"></polyline><g stroke="#b8cfe8" stroke-width="1.6"><line x1="525" y1="886" x2="525" y2="893"></line><line x1="517" y1="893" x2="533" y2="893"></line><line x1="520" y1="897" x2="530" y2="897"></line><line x1="523" y1="901" x2="527" y2="901"></line></g><polyline points="380,855 350,855" fill="none" stroke="#b8cfe8" stroke-width="1.6"></polyline><rect x="310" y="848" width="40" height="14" rx="2" fill="#10161f" stroke="#b8cfe8" stroke-width="1.6"></rect><text x="330" y="876" fill="#9fb3c8" font-size="10" text-anchor="middle" font-family="Consolas,monospace">R4 10k</text><polyline points="310,855 300,855" fill="none" stroke="#b8cfe8" stroke-width="1.6"></polyline><polyline points="300,855 300,940" fill="none" stroke="#b8cfe8" stroke-width="1.6"></polyline><circle cx="300" cy="855" r="3" fill="#b8cfe8"></circle><polyline points="250,940 380,940" fill="none" stroke="#b8cfe8" stroke-width="1.6"></polyline><circle cx="300" cy="940" r="3" fill="#b8cfe8"></circle><g stroke="#b8cfe8" stroke-width="1.6"><line x1="315" y1="944" x2="315" y2="951"></line><line x1="307" y1="951" x2="323" y2="951"></line><line x1="310" y1="955" x2="320" y2="955"></line><line x1="313" y1="959" x2="317" y2="959"></line></g><text x="368" y="958" fill="#e8f0f8" font-size="12" text-anchor="start" font-family="Consolas,monospace">GND</text><polyline points="570,164 620,164 620,410 820,410" fill="none" stroke="#b8cfe8" stroke-width="1.6"></polyline><polyline points="570,196 640,196 640,440 820,440" fill="none" stroke="#b8cfe8" stroke-width="1.6"></polyline><polyline points="570,374 660,374 660,470 820,470" fill="none" stroke="#b8cfe8" stroke-width="1.6"></polyline><polyline points="570,406 680,406 680,500 820,500" fill="none" stroke="#b8cfe8" stroke-width="1.6"></polyline><polyline points="570,584 700,584 700,530 820,530" fill="none" stroke="#b8cfe8" stroke-width="1.6"></polyline><polyline points="570,616 720,616 720,560 820,560" fill="none" stroke="#b8cfe8" stroke-width="1.6"></polyline><polyline points="570,794 740,794 740,590 820,590" fill="none" stroke="#b8cfe8" stroke-width="1.6"></polyline><polyline points="570,826 760,826 760,620 820,620" fill="none" stroke="#b8cfe8" stroke-width="1.6"></polyline><rect x="820" y="380" width="210" height="280" rx="4" fill="#10161f" stroke="#35e0ff" stroke-width="2"></rect><text x="925" y="482" fill="#35e0ff" font-size="13" text-anchor="middle" font-weight="bold" font-family="Consolas,monospace">STM32F103</text><text x="925" y="497" fill="#35e0ff" font-size="13" text-anchor="middle" font-weight="bold" font-family="Consolas,monospace">C8T6</text><text x="925" y="515" fill="#9fb3c8" font-size="10" text-anchor="middle" font-family="sans-serif">I2C2 从机</text><text x="925" y="529" fill="#9fb3c8" font-size="10" text-anchor="middle" font-family="Consolas,monospace">0x30+ID</text><polyline points="925,380 925,362" fill="none" stroke="#b8cfe8" stroke-width="1.6"></polyline><text x="925" y="354" fill="#35e0ff" font-size="11" text-anchor="middle" font-family="Consolas,monospace">+3.3V</text><polyline points="925,660 925,676" fill="none" stroke="#b8cfe8" stroke-width="1.6"></polyline><g stroke="#b8cfe8" stroke-width="1.6"><line x1="925" y1="676" x2="925" y2="683"></line><line x1="917" y1="683" x2="933" y2="683"></line><line x1="920" y1="687" x2="930" y2="687"></line><line x1="923" y1="691" x2="927" y2="691"></line></g><circle cx="820" cy="410" r="2.4" fill="#b8cfe8"></circle><text x="828" y="414" fill="#e8f0f8" font-size="11" text-anchor="start" font-family="Consolas,monospace">DT1 PB0</text><circle cx="820" cy="440" r="2.4" fill="#b8cfe8"></circle><text x="828" y="444" fill="#e8f0f8" font-size="11" text-anchor="start" font-family="Consolas,monospace">SCK1 PB1</text><circle cx="820" cy="470" r="2.4" fill="#b8cfe8"></circle><text x="828" y="474" fill="#e8f0f8" font-size="11" text-anchor="start" font-family="Consolas,monospace">DT2 PB5</text><circle cx="820" cy="500" r="2.4" fill="#b8cfe8"></circle><text x="828" y="504" fill="#e8f0f8" font-size="11" text-anchor="start" font-family="Consolas,monospace">SCK2 PB6</text><circle cx="820" cy="530" r="2.4" fill="#b8cfe8"></circle><text x="828" y="534" fill="#e8f0f8" font-size="11" text-anchor="start" font-family="Consolas,monospace">DT3 PB7</text><circle cx="820" cy="560" r="2.4" fill="#b8cfe8"></circle><text x="828" y="564" fill="#e8f0f8" font-size="11" text-anchor="start" font-family="Consolas,monospace">SCK3 PB8</text><circle cx="820" cy="590" r="2.4" fill="#b8cfe8"></circle><text x="828" y="594" fill="#e8f0f8" font-size="11" text-anchor="start" font-family="Consolas,monospace">DT4 PB9</text><circle cx="820" cy="620" r="2.4" fill="#b8cfe8"></circle><text x="828" y="624" fill="#e8f0f8" font-size="11" text-anchor="start" font-family="Consolas,monospace">SCK4 PB12</text><circle cx="1030" cy="435" r="2.4" fill="#b8cfe8"></circle><text x="1022" y="439" fill="#e8f0f8" font-size="11" text-anchor="end" font-family="Consolas,monospace">SCL PB10</text><circle cx="1030" cy="470" r="2.4" fill="#b8cfe8"></circle><text x="1022" y="474" fill="#e8f0f8" font-size="11" text-anchor="end" font-family="Consolas,monospace">SDA PB11</text><circle cx="1030" cy="530" r="2.4" fill="#b8cfe8"></circle><text x="1022" y="534" fill="#e8f0f8" font-size="11" text-anchor="end" font-family="Consolas,monospace">ID0 PA0</text><circle cx="1030" cy="565" r="2.4" fill="#b8cfe8"></circle><text x="1022" y="569" fill="#e8f0f8" font-size="11" text-anchor="end" font-family="Consolas,monospace">ID1 PA1</text><circle cx="1030" cy="600" r="2.4" fill="#b8cfe8"></circle><text x="1022" y="604" fill="#e8f0f8" font-size="11" text-anchor="end" font-family="Consolas,monospace">ID2 PA2</text><polyline points="1030,435 1180,435" fill="none" stroke="#b8cfe8" stroke-width="1.6"></polyline><polyline points="1030,470 1180,470" fill="none" stroke="#b8cfe8" stroke-width="1.6"></polyline><circle cx="1080" cy="435" r="3" fill="#b8cfe8"></circle><circle cx="1130" cy="470" r="3" fill="#b8cfe8"></circle><polyline points="1080,215 1080,309" fill="none" stroke="#b8cfe8" stroke-width="1.6"></polyline><polyline points="1080,341 1080,435" fill="none" stroke="#b8cfe8" stroke-width="1.6"></polyline><rect x="1072" y="309" width="16" height="32" fill="#10161f" stroke="#b8cfe8" stroke-width="1.6"></rect><text x="1064" y="329" fill="#e8f0f8" font-size="11" text-anchor="end" font-family="Consolas,monospace">R5 4.7k</text><text x="1080" y="205" fill="#35e0ff" font-size="11" text-anchor="middle" font-family="Consolas,monospace">+3.3V</text><polyline points="1130,215 1130,326.5" fill="none" stroke="#b8cfe8" stroke-width="1.6"></polyline><polyline points="1130,358.5 1130,470" fill="none" stroke="#b8cfe8" stroke-width="1.6"></polyline><rect x="1122" y="326.5" width="16" height="32" fill="#10161f" stroke="#b8cfe8" stroke-width="1.6"></rect><text x="1146" y="346.5" fill="#e8f0f8" font-size="11" text-anchor="start" font-family="Consolas,monospace">R6 4.7k</text><text x="1130" y="205" fill="#35e0ff" font-size="11" text-anchor="middle" font-family="Consolas,monospace">+3.3V</text><rect x="1180" y="360" width="140" height="160" rx="4" fill="#10161f" stroke="#9be37b" stroke-width="2"></rect><text x="1250" y="378" fill="#9be37b" font-size="13" text-anchor="middle" font-family="sans-serif">I2C 总线 J1</text><text x="1250" y="394" fill="#9fb3c8" font-size="10" text-anchor="middle" font-family="sans-serif">→ 主控(主机)</text><circle cx="1180" cy="400" r="2.4" fill="#b8cfe8"></circle><text x="1190" y="404" fill="#e8f0f8" font-size="11" text-anchor="start" font-family="Consolas,monospace">1 +3.3V</text><circle cx="1180" cy="435" r="2.4" fill="#b8cfe8"></circle><text x="1190" y="439" fill="#e8f0f8" font-size="11" text-anchor="start" font-family="Consolas,monospace">2 SCL</text><circle cx="1180" cy="470" r="2.4" fill="#b8cfe8"></circle><text x="1190" y="474" fill="#e8f0f8" font-size="11" text-anchor="start" font-family="Consolas,monospace">3 SDA</text><circle cx="1180" cy="505" r="2.4" fill="#b8cfe8"></circle><text x="1190" y="509" fill="#e8f0f8" font-size="11" text-anchor="start" font-family="Consolas,monospace">4 GND</text><polyline points="1180,400 1150,400 1150,384" fill="none" stroke="#b8cfe8" stroke-width="1.6"></polyline><text x="1150" y="376" fill="#35e0ff" font-size="10" text-anchor="middle" font-family="Consolas,monospace">+3.3V</text><polyline points="1180,505 1150,505 1150,520" fill="none" stroke="#b8cfe8" stroke-width="1.6"></polyline><g stroke="#b8cfe8" stroke-width="1.6"><line x1="1150" y1="520" x2="1150" y2="527"></line><line x1="1142" y1="527" x2="1158" y2="527"></line><line x1="1145" y1="531" x2="1155" y2="531"></line><line x1="1148" y1="535" x2="1152" y2="535"></line></g><polyline points="1030,530 1140,530" fill="none" stroke="#b8cfe8" stroke-width="1.6"></polyline><rect x="1140" y="515" width="90" height="30" rx="3" fill="#131a24" stroke="#9be37b" stroke-width="1.6"></rect><text x="1185" y="534" fill="#e8f0f8" font-size="11" text-anchor="middle" font-family="sans-serif">ID0 焊盘</text><polyline points="1230,530 1265,530 1265,546" fill="none" stroke="#b8cfe8" stroke-width="1.6"></polyline><g stroke="#b8cfe8" stroke-width="1.6"><line x1="1265" y1="546" x2="1265" y2="553"></line><line x1="1257" y1="553" x2="1273" y2="553"></line><line x1="1260" y1="557" x2="1270" y2="557"></line><line x1="1263" y1="561" x2="1267" y2="561"></line></g><polyline points="1030,565 1140,565" fill="none" stroke="#b8cfe8" stroke-width="1.6"></polyline><rect x="1140" y="550" width="90" height="30" rx="3" fill="#131a24" stroke="#9be37b" stroke-width="1.6"></rect><text x="1185" y="569" fill="#e8f0f8" font-size="11" text-anchor="middle" font-family="sans-serif">ID1 焊盘</text><polyline points="1230,565 1265,565 1265,581" fill="none" stroke="#b8cfe8" stroke-width="1.6"></polyline><g stroke="#b8cfe8" stroke-width="1.6"><line x1="1265" y1="581" x2="1265" y2="588"></line><line x1="1257" y1="588" x2="1273" y2="588"></line><line x1="1260" y1="592" x2="1270" y2="592"></line><line x1="1263" y1="596" x2="1267" y2="596"></line></g><polyline points="1030,600 1140,600" fill="none" stroke="#b8cfe8" stroke-width="1.6"></polyline><rect x="1140" y="585" width="90" height="30" rx="3" fill="#131a24" stroke="#9be37b" stroke-width="1.6"></rect><text x="1185" y="604" fill="#e8f0f8" font-size="11" text-anchor="middle" font-family="sans-serif">ID2 焊盘</text><polyline points="1230,600 1265,600 1265,616" fill="none" stroke="#b8cfe8" stroke-width="1.6"></polyline><g stroke="#b8cfe8" stroke-width="1.6"><line x1="1265" y1="616" x2="1265" y2="623"></line><line x1="1257" y1="623" x2="1273" y2="623"></line><line x1="1260" y1="627" x2="1270" y2="627"></line><line x1="1263" y1="631" x2="1267" y2="631"></line></g><text x="1185" y="648" fill="#9fb3c8" font-size="11" text-anchor="middle" font-family="sans-serif">短接 = 1（内部上拉）→ 地址 0x30+ID</text><rect x="1150" y="90" width="150" height="80" rx="4" fill="#10161f" stroke="#9be37b" stroke-width="2"></rect><text x="1225" y="108" fill="#9be37b" font-size="13" text-anchor="middle" font-family="sans-serif">电源输入 J2</text><circle cx="1150" cy="130" r="2.4" fill="#b8cfe8"></circle><text x="1160" y="134" fill="#e8f0f8" font-size="11" text-anchor="start" font-family="Consolas,monospace">5V</text><circle cx="1150" cy="160" r="2.4" fill="#b8cfe8"></circle><text x="1160" y="164" fill="#e8f0f8" font-size="11" text-anchor="start" font-family="Consolas,monospace">GND</text><polyline points="1150,130 1080,130" fill="none" stroke="#b8cfe8" stroke-width="1.6"></polyline><rect x="950" y="100" width="130" height="50" rx="4" fill="#10161f" stroke="#c9a7ff" stroke-width="2"></rect><text x="1015" y="129" fill="#e8f0f8" font-size="12" text-anchor="middle" font-family="Consolas,monospace">AMS1117-3.3</text><polyline points="950,130 905,130" fill="none" stroke="#b8cfe8" stroke-width="1.6"></polyline><text x="898" y="134" fill="#35e0ff" font-size="12" text-anchor="end" font-family="Consolas,monospace">+3.3V</text><polyline points="1015,150 1015,166" fill="none" stroke="#b8cfe8" stroke-width="1.6"></polyline><g stroke="#b8cfe8" stroke-width="1.6"><line x1="1015" y1="166" x2="1015" y2="173"></line><line x1="1007" y1="173" x2="1023" y2="173"></line><line x1="1010" y1="177" x2="1020" y2="177"></line><line x1="1013" y1="181" x2="1017" y2="181"></line></g><polyline points="1150,160 1150,166" fill="none" stroke="#b8cfe8" stroke-width="1.6"></polyline><g stroke="#b8cfe8" stroke-width="1.6"><line x1="1150" y1="166" x2="1150" y2="173"></line><line x1="1142" y1="173" x2="1158" y2="173"></line><line x1="1145" y1="177" x2="1155" y2="177"></line><line x1="1148" y1="181" x2="1152" y2="181"></line></g><text x="1015" y="90" fill="#9fb3c8" font-size="10" text-anchor="middle" font-family="sans-serif">5V→3.3V，IN/OUT 各 10µF</text><polyline points="860,660 860,684" fill="none" stroke="#b8cfe8" stroke-width="1.6"></polyline><text x="852" y="676" fill="#9fb3c8" font-size="10" text-anchor="end" font-family="Consolas,monospace">PD0</text><polyline points="890,660 890,684" fill="none" stroke="#b8cfe8" stroke-width="1.6"></polyline><text x="898" y="676" fill="#9fb3c8" font-size="10" text-anchor="start" font-family="Consolas,monospace">PD1</text><rect x="858" y="684" width="34" height="30" rx="3" fill="#10161f" stroke="#b8cfe8" stroke-width="1.6"></rect><text x="875" y="703" fill="#e8f0f8" font-size="10" text-anchor="middle" font-family="Consolas,monospace">Y1 8M</text><polyline points="860,670 830,670 830,686" fill="none" stroke="#b8cfe8" stroke-width="1.6"></polyline><line x1="824" y1="686" x2="836" y2="686" stroke="#b8cfe8" stroke-width="1.8"></line><line x1="824" y1="692" x2="836" y2="692" stroke="#b8cfe8" stroke-width="1.8"></line><polyline points="830,692 830,706" fill="none" stroke="#b8cfe8" stroke-width="1.6"></polyline><g stroke="#b8cfe8" stroke-width="1.6"><line x1="830" y1="706" x2="830" y2="713"></line><line x1="822" y1="713" x2="838" y2="713"></line><line x1="825" y1="717" x2="835" y2="717"></line><line x1="828" y1="721" x2="832" y2="721"></line></g><text x="818" y="684" fill="#9fb3c8" font-size="10" text-anchor="end" font-family="Consolas,monospace">C3 20p</text><polyline points="890,670 920,670 920,686" fill="none" stroke="#b8cfe8" stroke-width="1.6"></polyline><line x1="914" y1="686" x2="926" y2="686" stroke="#b8cfe8" stroke-width="1.8"></line><line x1="914" y1="692" x2="926" y2="692" stroke="#b8cfe8" stroke-width="1.8"></line><polyline points="920,692 920,706" fill="none" stroke="#b8cfe8" stroke-width="1.6"></polyline><g stroke="#b8cfe8" stroke-width="1.6"><line x1="920" y1="706" x2="920" y2="713"></line><line x1="912" y1="713" x2="928" y2="713"></line><line x1="915" y1="717" x2="925" y2="717"></line><line x1="918" y1="721" x2="922" y2="721"></line></g><text x="930" y="684" fill="#9fb3c8" font-size="10" text-anchor="start" font-family="Consolas,monospace">C4 20p</text><rect x="580" y="730" width="860" height="205" rx="6" fill="none" stroke="#263244" stroke-dasharray="5 4"></rect><text x="600" y="752" fill="#f5c518" font-size="13" text-anchor="middle" font-weight="bold" font-family="sans-serif">设计说明</text><text x="600" y="774" fill="#9fb3c8" font-size="12" text-anchor="start" font-family="sans-serif">1. 传感器 S1–S4：RP-C18.3-ST 薄膜压敏（无压 &gt;3MΩ，重压达 kΩ 级），贴于装甲板背面 4 象限</text><text x="600" y="794" fill="#9fb3c8" font-size="12" text-anchor="start" font-family="sans-serif">2. 半桥接法：传感器 → E+ / A+；A- 经 10kΩ 配平电阻接 GND（按实测静态阻值选取）；E- 悬空</text><text x="600" y="814" fill="#9fb3c8" font-size="12" text-anchor="start" font-family="sans-serif">3. HX711 统一 3.3V 供电，DT/SCK 与 MCU 直连（同电平域无需转换）；上电默认 A 通道 ±128 增益</text><text x="600" y="834" fill="#9fb3c8" font-size="12" text-anchor="start" font-family="sans-serif">4. 引脚与 hx711.c 一致；CH4 的 SCK 由 PB10 改为 PB12，腾出 PB10/PB11 作硬件 I2C2 从机</text><text x="600" y="854" fill="#9fb3c8" font-size="12" text-anchor="start" font-family="sans-serif">5. ID 设定：PA0/PA1/PA2 内部上拉，焊盘短接 = 1；7 位地址 = 0x30+ID（8 个，无需任何额外芯片）</text><text x="600" y="874" fill="#9fb3c8" font-size="12" text-anchor="start" font-family="sans-serif">6. 主控作 I2C 主机经 J1 轮询 4 通道原始 AD，超过阈值判受击；多块装甲板并联同一总线</text><text x="600" y="894" fill="#9fb3c8" font-size="12" text-anchor="start" font-family="sans-serif">7. 最小系统：Y1 8MHz + 20pF×2；BOOT0 经 10kΩ 下拉；NRST 10kΩ 上拉 + 100nF；各电源脚 100nF 去耦</text><text x="600" y="914" fill="#9fb3c8" font-size="12" text-anchor="start" font-family="sans-serif">8. ● = 电气连接；导线十字交叉处无圆点 = 不连接；E+/A+ 走线尽量短并远离 SCK</text></svg>